<svg width="219.21332" height="136.37059" xmlns="http://www.w3.org/2000/svg">
 <defs>
  <filter id="a">
   <feGaussianBlur stdDeviation="1.59117"/>
  </filter>
  <filter height="1.2161" width="1.1346" y="-0.10804" x="-0.06729" id="c">
   <feGaussianBlur stdDeviation="4.61809"/>
  </filter>
  <filter height="2.2" width="1.3061" y="-0.60002" x="-0.15306" id="b">
   <feGaussianBlur stdDeviation="2.99652"/>
  </filter>
 </defs>
 <g>
  <title>background</title>
  <rect fill="none" id="canvas_background" height="138.37059" width="221.21332" y="-1" x="-1"/>
 </g>
 <g>
  <title>Layer 1</title>
  <g id="svg_1">
   <path id="svg_2" stroke-width="3.5" stroke="#000" filter="url(#c)" fill-rule="evenodd" fill="#0f45fe" d="m30.55,97.880006c39.352,6.0254 74.605,7.1536 108.31,0l-6.364,26.163c22.964,-14.118 54.774,-29.9 59.276,-51.619c-4.2563,-21.885 -38.456,-34.809 -61.167,-47.467l7.7782,24.132c-34.783,-10.804 -70.93,-7.9605 -107.59,0l-0.24264,48.79l-0.00056,0.001z"/>
   <path id="svg_3" stroke-width="3.5" stroke="#000" fill-rule="evenodd" fill="#0f45fe" d="m23,85.380006c39.352,6.0254 74.605,7.1536 108.31,0l-6.364,26.163c22.964,-14.118 54.774,-29.9 59.276,-51.619c-4.2563,-21.885 -38.456,-34.809 -61.167,-47.467l7.7782,24.132c-34.783,-10.804 -70.93,-7.9605 -107.59,0l-0.24264,48.79l-0.00056,0.001z"/>
   <path id="svg_4" stroke-width="4" stroke-linejoin="round" stroke="#000" opacity="0.7562" filter="url(#a)" fill="#fff" d="m81.484744,28.783662a10.370326,10.370326 0 1 1 -20.740651,0a10.370326,10.370326 0 1 1 20.740651,0z"/>
   <path id="svg_5" stroke-width="4" stroke-linejoin="round" stroke="#000" opacity="0.7562" fill="#010101" d="m74.803256,29.98143a3.789023,3.789023 0 1 1 -7.578326,0a3.789023,3.789023 0 1 1 7.578326,0z"/>
   <path id="svg_6" stroke-width="4" stroke-linejoin="round" stroke="#000" opacity="0.7562" filter="url(#a)" fill="#fff" d="m113.274744,28.423662a10.370326,10.370326 0 1 1 -20.740651,0a10.370326,10.370326 0 1 1 20.740651,0z"/>
   <path id="svg_7" stroke-width="4" stroke-linejoin="round" stroke="#000" opacity="0.7562" fill="#010101" d="m106.583256,29.62143a3.789023,3.789023 0 1 1 -7.578326,0a3.789023,3.789023 0 1 1 7.578326,0z"/>
   <path id="svg_8" stroke-width="1.9" stroke="#000" fill="none" d="m59.69,14.500006l8.9286,-5.3572l9.2857,3.9286"/>
   <path id="svg_9" stroke-width="1.9" stroke="#000" fill="none" d="m95.04,13.070006l10,-4.2857l10,6.0714"/>
   <path id="svg_10" stroke-width="5.2" stroke="#090000" filter="url(#b)" fill="none" d="m66.83,57.000006s15.714,6.4286 22.143,6.4286c6.8698,0 19.643,-6.7857 19.643,-6.7857"/>
   <path id="svg_11" stroke-width="5.2" stroke="#d20101" fill="none" d="m66.69,56.820006s15.714,6.4286 22.143,6.4286c6.8698,0 19.643,-6.7857 19.643,-6.7857"/>
  </g>
 </g>
</svg>